# xmcd
#
# Track frame offsets: 
#        150
#        14042
#        28959
#        41618
#        63149
#        74296
#        85615
#        98405
#        115763
#        129385
#        145032
#        158417
#        175306
#        188952
#        205164
#        216887
#        229033
#        245198
#        259636
#        274802
#
# Disc length: 3849 seconds
#
# Revision: 2
# Processed by: cddbd v1.5.2PL0 Copyright (c) Steve Scherf et al.
# Submitted via: ExactAudioCopy v0.99pb5
#
DISCID=160f0714
DTITLE=Various Artist - WDR 4 - Country Music - CD 1
DYEAR=2008
DGENRE=Country
TTITLE0=Willie Nelson - My heroes have always been cowboys 
TTITLE1=Mark Chesnutt - Somebody save the honky tonks
TTITLE2=Susan Raye - L.A. International Airport
TTITLE3=Jonny Hill - Ruf' Teddybär eins-vier
TTITLE4=Ferlin Husky - The bridge I have never crossed
TTITLE5=Barbara Perry - I'll hold you closer than love
TTITLE6=Jim Reeves - Four walls
TTITLE7=Steve Wariner - I got dreams
TTITLE8=Ronnie Rogers - Diane
TTITLE9=Karen O'Donnell - I know what it's all about, mama
TTITLE10=Truck Stop - Take It Easy, altes Haus
TTITLE11=Ricky Skaggs - Cajun moon
TTITLE12=Billy Grammer - The hour of separation
TTITLE13=Gudrun Lange and Kactus - Mitten ins Herz
TTITLE14=Dave Dudley - Six days on the road (Neuaufnahme)
TTITLE15=David Price - I need a friend
TTITLE16=Billie Jo Spears - Blanket on the ground
TTITLE17=John Schneider - Country girls
TTITLE18=Roy Rivers and Dolly Parton - Thank God I'm a country boy
TTITLE19=Tom Jones - Green, green grass of home
EXTD=
EXTT0=
EXTT1=
EXTT2=
EXTT3=
EXTT4=
EXTT5=
EXTT6=
EXTT7=
EXTT8=
EXTT9=
EXTT10=
EXTT11=
EXTT12=
EXTT13=
EXTT14=
EXTT15=
EXTT16=
EXTT17=
EXTT18=
EXTT19=
PLAYORDER=
